<svg width="32" height="29" viewBox="0 0 32 29" fill="none" xmlns="http://www.w3.org/2000/svg">
<g filter="url(#filter0_d_1716_413)">
<path d="M26.5396 6.42C26.4208 5.94541 26.1789 5.51057 25.8382 5.15941C25.4976 4.80824 25.0703 4.55318 24.5996 4.42C22.8796 4 15.9996 4 15.9996 4C15.9996 4 9.1196 4 7.3996 4.46C6.92884 4.59318 6.50157 4.84824 6.16094 5.19941C5.82031 5.55057 5.57838 5.98541 5.4596 6.46C5.14481 8.20556 4.99083 9.97631 4.9996 11.75C4.98837 13.537 5.14236 15.3213 5.4596 17.08C5.59055 17.5398 5.8379 17.9581 6.17774 18.2945C6.51758 18.6308 6.93842 18.8738 7.3996 19C9.1196 19.46 15.9996 19.46 15.9996 19.46C15.9996 19.46 22.8796 19.46 24.5996 19C25.0703 18.8668 25.4976 18.6118 25.8382 18.2606C26.1789 17.9094 26.4208 17.4746 26.5396 17C26.852 15.2676 27.0059 13.5103 26.9996 11.75C27.0108 9.96295 26.8568 8.1787 26.5396 6.42Z" stroke="#FFFAF1" stroke-width="2" stroke-linecap="round" stroke-linejoin="round"/>
<path d="M13.75 15.02L19.5 11.75L13.75 8.47998V15.02Z" stroke="#FFFAF1" stroke-width="2" stroke-linecap="round" stroke-linejoin="round"/>
</g>
<defs>
<filter id="filter0_d_1716_413" x="0" y="0" width="32" height="32" filterUnits="userSpaceOnUse" color-interpolation-filters="sRGB">
<feFlood flood-opacity="0" result="BackgroundImageFix"/>
<feColorMatrix in="SourceAlpha" type="matrix" values="0 0 0 0 0 0 0 0 0 0 0 0 0 0 0 0 0 0 127 0" result="hardAlpha"/>
<feOffset dy="4"/>
<feGaussianBlur stdDeviation="2"/>
<feComposite in2="hardAlpha" operator="out"/>
<feColorMatrix type="matrix" values="0 0 0 0 0 0 0 0 0 0 0 0 0 0 0 0 0 0 0.25 0"/>
<feBlend mode="normal" in2="BackgroundImageFix" result="effect1_dropShadow_1716_413"/>
<feBlend mode="normal" in="SourceGraphic" in2="effect1_dropShadow_1716_413" result="shape"/>
</filter>
</defs>
</svg>
